<?xml version="1.0" standalone="no"?>
<!DOCTYPE svg PUBLIC "-//W3C//DTD SVG 20010904//EN"
 "http://www.w3.org/TR/2001/REC-SVG-20010904/DTD/svg10.dtd">
<svg version="1.0" xmlns="http://www.w3.org/2000/svg"
 width="1024.000000pt" height="1024.000000pt" viewBox="0 0 1024.000000 1024.000000"
 preserveAspectRatio="xMidYMid meet">
<metadata>
Created by potrace 1.11, written by Peter Selinger 2001-2013
</metadata>
<g transform="translate(0.000000,1024.000000) scale(0.100000,-0.100000)"
fill="#000000" stroke="none">
<path d="M1071 9859 c-168 -33 -306 -106 -435 -228 -115 -111 -179 -213 -232
-371 l-29 -85 0 -4055 0 -4055 29 -85 c51 -151 100 -233 205 -344 111 -115
213 -179 371 -232 l85 -29 4055 0 4055 0 85 29 c158 53 260 117 371 232 105
111 154 193 205 344 l29 85 0 4055 0 4055 -29 85 c-53 158 -117 260 -232 371
-111 105 -193 154 -344 205 l-85 29 -4030 1 c-2262 1 -4049 -2 -4074 -7z
m4544 -438 c682 -81 1293 -301 1860 -669 514 -334 943 -763 1277 -1277 420
-647 646 -1349 694 -2152 l6 -113 -90 0 -89 0 -7 108 c-59 885 -428 1694
-1055 2311 -579 570 -1300 909 -2131 1002 -169 19 -572 17 -750 -5 -958 -114
-1793 -579 -2389 -1329 -330 -415 -581 -951 -685 -1459 -39 -190 -75 -481 -76
-600 l0 -28 -695 0 -695 0 0 28 c0 65 22 327 36 437 121 947 554 1826 1233
2506 740 739 1698 1177 2751 1259 185 14 610 4 805 -19z m415 -951 c1152 -104
2178 -796 2705 -1825 209 -409 338 -879 362 -1317 l6 -118 -80 0 c-93 0 -93 0
-93 103 0 140 -43 399 -95 582 -267 931 -1041 1646 -1985 1834 -195 38 -281
46 -520 46 -310 -1 -516 -32 -789 -120 -306 -99 -596 -256 -848 -460 -450
-362 -787 -917 -902 -1485 -27 -132 -51 -333 -51 -427 l0 -73 -690 0 -690 0 0
48 c0 223 75 635 165 907 148 444 419 906 718 1222 331 349 624 567 1029 763
370 179 769 287 1193 323 95 8 460 6 565 -3z m614 -876 c814 -101 1523 -613
1882 -1359 141 -293 234 -667 234 -941 l0 -84 -87 0 -88 0 -3 117 c-16 623
-382 1198 -942 1482 -418 212 -886 249 -1329 105 -139 -45 -342 -147 -461
-231 -122 -87 -326 -291 -412 -413 -189 -266 -302 -597 -315 -922 l-6 -138
-605 0 -605 0 7 108 c30 456 161 848 407 1217 238 356 562 642 940 827 440
216 895 293 1383 232z m-5670 -2671 c74 -1121 648 -2115 1581 -2740 461 -308
985 -499 1565 -569 199 -24 590 -25 790 -1 1233 149 2271 889 2805 2001 191
397 300 805 336 1259 l12 157 695 0 694 0 -7 -117 c-31 -536 -143 -1026 -341
-1490 -191 -447 -469 -876 -808 -1246 -271 -296 -680 -621 -1031 -819 -524
-297 -1065 -471 -1690 -544 -210 -25 -700 -25 -910 0 -458 53 -853 156 -1242
322 -447 191 -876 469 -1246 808 -296 271 -621 680 -819 1031 -339 599 -522
1229 -564 1943 l-6 112 90 0 89 0 7 -107z m330 85 c3 -13 7 -75 10 -139 10
-203 58 -436 136 -662 262 -761 869 -1360 1635 -1613 294 -97 500 -129 825
-129 249 1 357 12 570 60 906 203 1644 892 1914 1788 60 200 106 477 106 644
l0 73 690 0 690 0 0 -47 c0 -224 -75 -636 -165 -908 -148 -444 -419 -906 -718
-1222 -330 -349 -628 -569 -1030 -763 -331 -159 -655 -255 -1037 -307 -188
-25 -670 -25 -845 0 -413 60 -717 153 -1070 327 -788 388 -1380 1051 -1684
1887 -99 270 -172 629 -188 915 l-6 118 81 0 c77 0 82 -1 86 -22z m354 -96
c12 -425 190 -844 490 -1149 605 -615 1548 -698 2254 -197 111 79 317 287 400
404 189 266 302 597 315 923 l6 137 605 0 605 0 -7 -107 c-30 -457 -161 -849
-407 -1218 -532 -798 -1481 -1206 -2425 -1045 -665 114 -1252 500 -1627 1070
-228 347 -387 847 -387 1216 l0 84 88 0 87 0 3 -118z"/>
</g>
</svg>
